<?xml version="1.0" encoding="UTF-8" standalone="no"?>
<svg
   xmlns:dc="http://purl.org/dc/elements/1.1/"
   xmlns:cc="http://creativecommons.org/ns#"
   xmlns:rdf="http://www.w3.org/1999/02/22-rdf-syntax-ns#"
   xmlns:svg="http://www.w3.org/2000/svg"
   xmlns="http://www.w3.org/2000/svg"
   viewBox="0 0 816 1056"
   height="1056"
   width="816"
   xml:space="preserve"
   id="svg2"
   version="1.1"><metadata
     id="metadata8"><rdf:RDF><cc:Work
         rdf:about=""><dc:format>image/svg+xml</dc:format><dc:type
           rdf:resource="http://purl.org/dc/dcmitype/StillImage" /></cc:Work></rdf:RDF></metadata><defs
     id="defs6"><clipPath
       id="clipPath18"
       clipPathUnits="userSpaceOnUse"><path
         id="path16"
         d="M 0,792 H 612 V 0 H 0 Z" /></clipPath></defs><g
     transform="matrix(1.3333333,0,0,-1.3333333,0,1056)"
     id="g10"><g
       id="g12"><g
         clip-path="url(#clipPath18)"
         id="g14"><g
           transform="translate(487.5107,362.6836)"
           id="g20"><path
             id="path22"
             style="fill:#ffa984;fill-opacity:1;fill-rule:nonzero;stroke:none"
             d="m 0,0 c 0.017,1.081 0.077,2.151 0.077,3.237 v 36.62 C 60.613,30.402 64.543,19.995 64.565,19.98 64.543,19.876 60.584,9.457 0,0 m -183.301,-181.581 c -94.448,0 -171.287,82.908 -171.287,184.818 0,14.378 0.786,32.373 1.067,38.345 46.639,6.406 106.915,9.922 170.891,9.922 63.685,0 124.003,-3.511 170.616,-9.889 V 3.237 c 0,-101.91 -76.839,-184.818 -171.287,-184.818 M -429.823,19.886 c 0.023,0.103 3.901,10.462 64.118,19.913 -0.339,-7.594 -0.974,-23.514 -0.974,-36.562 0,-1.013 0.058,-2.012 0.072,-3.023 -59.302,9.398 -63.193,19.657 -63.216,19.672 M -247.01,224.522 V 116.479 c 0,-3.339 2.706,-6.045 6.046,-6.045 3.339,0 6.045,2.706 6.045,6.045 v 121.812 c 0,6.268 5.101,11.368 11.369,11.368 h 72.035 c 6.27,0 11.37,-5.1 11.37,-11.368 V 116.479 c 0,-3.339 2.708,-6.045 6.046,-6.045 3.337,0 6.045,2.706 6.045,6.045 V 224.752 C -59.077,201.663 -9.628,133.239 -3.462,52.619 c -0.816,0.12 -1.588,0.242 -2.42,0.361 -47.725,6.845 -110.498,10.615 -176.748,10.615 -67.924,0 -131.832,-3.935 -179.952,-11.083 -0.583,-0.087 -1.12,-0.175 -1.695,-0.262 5.739,79.313 52.111,147.546 117.267,172.272 M 76.652,19.934 c 0,5.434 -0.005,19.298 -67.854,30.761 -5.642,87.76 -59.97,162.522 -135.82,186.474 -0.343,0.109 -0.688,0.17 -1.032,0.216 v 0.906 c 0,12.935 -10.524,23.459 -23.461,23.459 h -72.035 c -12.935,0 -23.46,-10.524 -23.46,-23.459 v -0.926 c -0.192,-0.048 -0.386,-0.073 -0.576,-0.141 -72.258,-25.455 -123.676,-100.289 -128.924,-186.952 -65.398,-11.391 -65.4,-25.006 -65.4,-30.338 0,-5.641 0.015,-20.356 75.843,-32.05 7.326,-101.421 86.468,-181.556 182.766,-181.556 96.234,0 175.333,80.026 182.752,181.349 C 76.63,-0.6 76.652,14.245 76.652,19.934" /></g><g
           transform="translate(434.1865,322.4502)"
           id="g24"><path
             id="path26"
             style="fill:#ffa984;fill-opacity:1;fill-rule:nonzero;stroke:none"
             d="m 0,0 c 0,-6.27 -5.101,-11.371 -11.371,-11.371 h -82.046 c -6.27,0 -11.37,5.101 -11.37,11.371 v 39.728 c 0,6.27 5.1,11.371 11.37,11.371 h 82.046 C -5.101,51.099 0,45.998 0,39.728 Z m -157.181,-0.099 c 0,-6.214 -5.057,-11.272 -11.272,-11.272 h -82.243 c -6.215,0 -11.272,5.058 -11.272,11.272 v 39.925 c 0,6.215 5.057,11.273 11.272,11.273 h 82.243 c 6.215,0 11.272,-5.058 11.272,-11.273 z m 145.81,63.288 h -82.046 c -10.839,0 -19.958,-7.398 -22.64,-17.403 l -29.852,0.073 c -2.67,9.962 -11.751,17.33 -22.544,17.33 h -82.243 c -12.882,0 -23.363,-10.481 -23.363,-23.363 V -0.099 c 0,-12.881 10.481,-23.363 23.363,-23.363 h 82.243 c 12.882,0 23.363,10.482 23.363,23.363 v 33.866 l 28.212,-0.07 V 0 c 0,-12.938 10.524,-23.462 23.461,-23.462 h 82.046 c 12.937,0 23.462,10.524 23.462,23.462 v 39.728 c 0,12.937 -10.525,23.461 -23.462,23.461" /></g></g></g></g></svg>